<svg xmlns="http://www.w3.org/2000/svg" viewBox="0 0 300 180" role="img" aria-labelledby="title">
  <title id="title">Agentic data science workflow from data to evaluated results</title>
  <defs>
    <marker id="arrow" viewBox="0 0 10 10" refX="8" refY="5" markerWidth="6" markerHeight="6" orient="auto">
      <path d="M 0 0 L 10 5 L 0 10 z" fill="#557a68"/>
    </marker>
  </defs>
  <rect x="1" y="1" width="298" height="178" rx="18" fill="#f4f6f1" stroke="#dfe2da"/>

  <g fill="none" stroke="#557a68" stroke-width="3" stroke-linecap="round" stroke-linejoin="round">
    <ellipse cx="48" cy="51" rx="27" ry="10" fill="#e3ece6"/>
    <path d="M 21 51 V 111 C 21 124 75 124 75 111 V 51"/>
    <path d="M 21 79 C 21 92 75 92 75 79 M 21 103 C 21 116 75 116 75 103"/>

    <path d="M 77 83 H 104" marker-end="url(#arrow)"/>
    <circle cx="133" cy="83" r="27" fill="#ffffff"/>
    <path d="M 124 74 L 133 65 L 142 74 M 124 92 L 133 101 L 142 92"/>
    <circle cx="133" cy="83" r="4" fill="#557a68"/>
    <path d="M 133 49 V 56 M 133 110 V 117 M 99 83 H 106 M 160 83 H 167"/>

    <path d="M 161 83 H 190" marker-end="url(#arrow)"/>
    <rect x="195" y="40" width="79" height="85" rx="10" fill="#ffffff"/>
    <path d="M 208 106 L 222 87 L 235 95 L 258 63"/>
    <circle cx="258" cy="63" r="4" fill="#e3ece6"/>
    <path d="M 208 113 H 261" stroke="#b4c3ba" stroke-width="2"/>

    <path d="M 244 136 C 204 159 94 159 52 134" stroke-width="2.3" stroke-dasharray="6 6" marker-end="url(#arrow)"/>
  </g>
  <path d="M 236 24 L 240 34 L 250 38 L 240 42 L 236 52 L 232 42 L 222 38 L 232 34 Z" fill="#557a68"/>
</svg>
