<svg xmlns="http://www.w3.org/2000/svg" viewBox="0 0 300 180" role="img" aria-labelledby="title desc">
  <title id="title">A world model learning latent dynamics and imagining future states</title>
  <desc id="desc">An observed relational world is encoded into a latent dynamics model and rolled forward into a predicted future world.</desc>
  <defs>
    <marker id="arrow" viewBox="0 0 10 10" refX="8" refY="5" markerWidth="6" markerHeight="6" orient="auto">
      <path d="M 0 0 L 10 5 L 0 10 z" fill="#557a68"/>
    </marker>
  </defs>
  <rect x="1" y="1" width="298" height="178" rx="18" fill="#f4f6f1" stroke="#dfe2da"/>

  <g fill="none" stroke="#557a68" stroke-width="2.7" stroke-linecap="round" stroke-linejoin="round">
    <!-- Observed world state. -->
    <rect x="18" y="48" width="70" height="88" rx="11" fill="#e3ece6"/>
    <path d="M 31 116 L 50 72 L 75 101"/>
    <circle cx="31" cy="116" r="5" fill="#f4f6f1"/>
    <circle cx="50" cy="72" r="5" fill="#f4f6f1"/>
    <circle cx="75" cy="101" r="5" fill="#f4f6f1"/>
    <path d="M 27 62 H 43" stroke="#91aa9c" stroke-width="2"/>

    <!-- Latent dynamics: a compact internal model of how the world changes. -->
    <circle cx="150" cy="89" r="43" fill="#ffffff"/>
    <path d="M 123 95 C 127 65 158 55 174 76 C 190 97 168 123 139 112 Z"/>
    <path d="M 121 75 C 143 82 160 105 174 119 M 116 101 C 139 96 168 83 183 67" stroke="#91aa9c" stroke-width="2.1"/>
    <circle cx="132" cy="68" r="5" fill="#e3ece6"/>
    <circle cx="173" cy="79" r="5" fill="#e3ece6"/>
    <circle cx="144" cy="115" r="5" fill="#e3ece6"/>
    <path d="M 150 39 C 180 42 199 65 198 91" stroke="#91aa9c" stroke-width="2.1" marker-end="url(#arrow)"/>

    <!-- Imagined future world. -->
    <rect x="212" y="48" width="70" height="88" rx="11" fill="#ffffff" stroke-dasharray="6 5"/>
    <path d="M 225 109 L 249 61 L 274 91"/>
    <circle cx="225" cy="109" r="5" fill="#f4f6f1"/>
    <circle cx="249" cy="61" r="5" fill="#f4f6f1"/>
    <circle cx="274" cy="91" r="5" fill="#f4f6f1"/>
    <path d="M 257 119 H 273" stroke="#91aa9c" stroke-width="2"/>

    <path d="M 92 89 H 102" marker-end="url(#arrow)"/>
    <path d="M 198 89 H 208" marker-end="url(#arrow)"/>
  </g>
</svg>
