<svg xmlns="http://www.w3.org/2000/svg" viewBox="0 0 640 1160" role="img" aria-labelledby="title desc">
  <title id="title">Research framework</title>
  <desc id="desc">A compact vertical loop connects agentic data scientists, models of dynamic worlds, and grounded physical agents.</desc>
  <defs>
    <marker id="arrow" viewBox="0 0 10 10" refX="8" refY="5" markerWidth="7" markerHeight="7" orient="auto-start-reverse">
      <path d="M 0 0 L 10 5 L 0 10 z" fill="#527866"/>
    </marker>
    <marker id="mini-arrow" viewBox="0 0 10 10" refX="8" refY="5" markerWidth="5.5" markerHeight="5.5" orient="auto">
      <path d="M 0 0 L 10 5 L 0 10 z" fill="#678d7b"/>
    </marker>
  </defs>
  <rect x="1" y="1" width="638" height="1158" rx="28" fill="#f5f6f1" stroke="#dfe2da"/>

  <rect x="70" y="45" width="500" height="150" rx="28" fill="#e8efea" stroke="#678d7b" stroke-width="2"/>
  <g font-family="Arial, Helvetica, sans-serif" text-anchor="middle">
    <text x="320" y="94" fill="#1d2822" font-size="28" font-weight="700">Agentic Intelligence Across</text>
    <text x="320" y="130" fill="#1d2822" font-size="25" font-weight="600">Digital-Physical Space</text>
    <g fill="#66736b" font-size="14" font-weight="700">
      <text x="225" y="164">UNDERSTAND</text>
      <circle cx="274" cy="159" r="2" fill="#8a958e"/>
      <text x="320" y="164">DECIDE</text>
      <circle cx="361" cy="159" r="2" fill="#8a958e"/>
      <text x="407" y="164">LEARN</text>
    </g>
  </g>

  <g fill="#ffffff" stroke="#cbd6ce">
    <rect x="60" y="245" width="520" height="190" rx="24"/>
    <rect x="60" y="535" width="520" height="190" rx="24"/>
    <rect x="60" y="825" width="520" height="190" rx="24"/>
  </g>

  <!-- Agentic data science symbol. -->
  <g transform="translate(93 292)" fill="none" stroke="#678d7b" stroke-width="3" stroke-linecap="round" stroke-linejoin="round">
    <ellipse cx="22" cy="17" rx="20" ry="8" fill="#edf3ef"/>
    <path d="M 2 17 V 66 C 2 76 42 76 42 66 V 17 M 2 41 C 2 51 42 51 42 41"/>
    <path d="M 43 44 H 56"/>
    <circle cx="72" cy="44" r="16" fill="#f9fbf8"/>
    <path d="M 65 38 L 72 31 L 79 38 M 65 50 L 72 57 L 79 50"/>
    <path d="M 88 44 H 101"/>
    <rect x="102" y="14" width="48" height="60" rx="7" fill="#f9fbf8"/>
    <path d="M 111 60 L 121 47 L 130 53 L 143 33 M 111 65 H 143"/>
  </g>

  <!-- World model: observations are encoded into latent dynamics and rolled forward. -->
  <g transform="translate(91 583)" fill="none" stroke="#678d7b" stroke-width="2.8" stroke-linecap="round" stroke-linejoin="round">
    <rect x="0" y="13" width="43" height="65" rx="7" fill="#edf3ef"/>
    <path d="M 8 61 L 21 31 L 35 48"/>
    <circle cx="8" cy="61" r="3.5" fill="#678d7b"/><circle cx="21" cy="31" r="3.5" fill="#678d7b"/><circle cx="35" cy="48" r="3.5" fill="#678d7b"/>

    <circle cx="81" cy="45" r="24" fill="#f9fbf8"/>
    <path d="M 66 49 C 69 31 88 26 96 40 C 103 54 88 65 73 58 Z"/>
    <path d="M 64 37 C 76 42 87 55 94 62 M 61 51 C 74 48 91 41 101 34" stroke-width="2"/>
    <circle cx="72" cy="35" r="3" fill="#678d7b"/><circle cx="93" cy="42" r="3" fill="#678d7b"/><circle cx="79" cy="59" r="3" fill="#678d7b"/>

    <rect x="118" y="13" width="43" height="65" rx="7" fill="#f9fbf8" stroke-dasharray="6 5"/>
    <path d="M 126 56 L 140 25 L 154 44"/>
    <circle cx="126" cy="56" r="3.5" fill="#678d7b"/><circle cx="140" cy="25" r="3.5" fill="#678d7b"/><circle cx="154" cy="44" r="3.5" fill="#678d7b"/>
    <path d="M 46 46 H 53 M 109 46 H 115" marker-end="url(#mini-arrow)"/>
  </g>

  <!-- Physical interaction: an agent acts on the world and learns from feedback. -->
  <g transform="translate(88 875)" fill="none" stroke="#678d7b" stroke-width="3" stroke-linecap="round" stroke-linejoin="round">
    <rect x="0" y="27" width="44" height="44" rx="10" fill="#f9fbf8"/>
    <circle cx="22" cy="49" r="8" fill="#edf3ef"/>
    <circle cx="22" cy="49" r="3" fill="#678d7b"/>
    <path d="M 22 17 V 27 M 22 71 V 81 M -10 49 H 0 M 44 49 H 54"/>

    <path d="M 50 23 C 80 3 124 3 150 25" marker-end="url(#mini-arrow)"/>
    <path d="M 150 78 C 120 97 78 97 50 73" marker-end="url(#mini-arrow)"/>

    <path d="M 124 76 L 124 66 L 103 49 L 123 31"/>
    <circle cx="124" cy="66" r="5" fill="#ffffff"/>
    <circle cx="103" cy="49" r="5" fill="#ffffff"/>
    <circle cx="123" cy="31" r="5" fill="#ffffff"/>
    <path d="M 123 31 L 136 24 M 123 31 L 137 39"/>
    <rect x="142" y="27" width="16" height="16" rx="2" fill="#edf3ef"/>
    <path d="M 133 76 H 172 M 143 49 L 143 55 M 158 49 L 158 55" stroke="#91aa9c" stroke-width="2"/>
    <path d="M 144 19 L 150 12 L 156 19" stroke="#91aa9c" stroke-width="2"/>
  </g>

  <g font-family="Arial, Helvetica, sans-serif" fill="#202622">
    <text x="275" y="313" font-size="29" font-weight="700">Agentic Data</text>
    <text x="275" y="348" font-size="29" font-weight="700">Scientists</text>
    <text x="275" y="391" font-size="18" fill="#657069">Analyze · discover · improve</text>

    <text x="275" y="603" font-size="27" font-weight="700">Models of Dynamic</text>
    <text x="275" y="638" font-size="27" font-weight="700">Worlds</text>
    <text x="275" y="681" font-size="18" fill="#657069">Represent · forecast · adapt</text>

    <text x="275" y="893" font-size="27" font-weight="700">Grounded Physical</text>
    <text x="275" y="928" font-size="27" font-weight="700">Agents</text>
    <text x="275" y="971" font-size="18" fill="#657069">Perceive · reason · act</text>
  </g>

  <!-- The three themes form a mutually reinforcing bidirectional loop. -->
  <g fill="none" stroke="#527866" stroke-width="3" stroke-linecap="round">
    <path d="M 475 435 V 520" marker-start="url(#arrow)" marker-end="url(#arrow)"/>
    <path d="M 475 725 V 810" marker-start="url(#arrow)" marker-end="url(#arrow)"/>
    <path d="M 580 920 C 624 920 624 340 580 340" marker-start="url(#arrow)" marker-end="url(#arrow)"/>
  </g>
  <g fill="#526059" font-family="Arial, Helvetica, sans-serif" font-size="16" font-weight="600" text-anchor="middle">
    <text x="254" y="476">modeling ↔ discovery</text>
    <text x="281" y="767">forecast ↔ feedback</text>
    <text x="622" y="630" transform="rotate(-90 622 630)" font-size="15">experiments ↔ observations</text>
  </g>
</svg>
