<svg xmlns="http://www.w3.org/2000/svg" viewBox="0 0 640 815" role="img" aria-labelledby="title desc">
  <title id="title">Research framework</title>
  <desc id="desc">A compact triangular feedback loop connects agentic data scientists, models of dynamic worlds, and grounded physical agents around agentic intelligence across digital-physical space.</desc>
  <defs>
    <marker id="arrow" viewBox="0 0 10 10" refX="8" refY="5" markerWidth="6.5" markerHeight="6.5" orient="auto-start-reverse">
      <path d="M0 0 L10 5 L0 10 Z" fill="#527866"/>
    </marker>
    <marker id="mini-arrow" viewBox="0 0 10 10" refX="8" refY="5" markerWidth="5" markerHeight="5" orient="auto">
      <path d="M0 0 L10 5 L0 10 Z" fill="#678d7b"/>
    </marker>
    <filter id="shadow" x="-15%" y="-20%" width="130%" height="150%">
      <feDropShadow dx="0" dy="5" stdDeviation="7" flood-color="#8d9991" flood-opacity="0.12"/>
    </filter>
  </defs>

  <rect x="1" y="1" width="638" height="813" rx="28" fill="#f5f6f1" stroke="#dfe2da"/>

  <!-- Relationship loop. -->
  <g fill="none" stroke="#527866" stroke-width="3" stroke-linecap="round">
    <path d="M177 199 C92 262 76 438 133 558" marker-start="url(#arrow)" marker-end="url(#arrow)"/>
    <path d="M463 199 C548 262 564 438 507 558" marker-start="url(#arrow)" marker-end="url(#arrow)"/>
    <path d="M285 727 C305 748 335 748 355 727" marker-start="url(#arrow)" marker-end="url(#arrow)"/>
  </g>
  <g fill="#58655e" font-family="Arial, Helvetica, sans-serif" font-size="15" font-weight="600" text-anchor="middle">
    <text x="85" y="383" transform="rotate(-78 85 383)">modeling ↔ discovery</text>
    <text x="555" y="383" transform="rotate(78 555 383)">experiments ↔ observations</text>
    <text x="320" y="790">forecast ↔ feedback</text>
  </g>

  <!-- Central research objective. -->
  <circle cx="320" cy="402" r="116" fill="#edf2ed" stroke="#78998a" stroke-width="2.5"/>
  <circle cx="320" cy="402" r="101" fill="#fbfcf9" stroke="#d5ddd6"/>
  <g font-family="Arial, Helvetica, sans-serif" text-anchor="middle">
    <text x="320" y="365" fill="#243029" font-size="22" font-weight="700">Agentic Intelligence</text>
    <text x="320" y="394" fill="#243029" font-size="19" font-weight="700">Across Digital-Physical</text>
    <text x="320" y="420" fill="#243029" font-size="19" font-weight="700">Space</text>
    <g fill="#66736b" font-size="12" font-weight="700">
      <text x="320" y="459">UNDERSTAND · DECIDE · LEARN</text>
    </g>
  </g>

  <!-- Agentic data scientists. -->
  <g filter="url(#shadow)">
    <rect x="115" y="43" width="410" height="156" rx="24" fill="#ffffff" stroke="#cbd6ce"/>
  </g>
  <g transform="translate(145 84)" fill="none" stroke="#678d7b" stroke-width="3" stroke-linecap="round" stroke-linejoin="round">
    <ellipse cx="20" cy="14" rx="18" ry="7" fill="#edf3ef"/>
    <path d="M2 14 V57 C2 66 38 66 38 57 V14 M2 35 C2 44 38 44 38 35"/>
    <path d="M39 36 H50"/>
    <circle cx="64" cy="36" r="13" fill="#f9fbf8"/>
    <path d="M59 31 L64 26 L69 31 M59 41 L64 46 L69 41"/>
    <path d="M77 36 H88"/>
    <rect x="89" y="10" width="42" height="52" rx="6" fill="#f9fbf8"/>
    <path d="M97 50 L106 39 L114 44 L124 27 M97 54 H123"/>
  </g>
  <g font-family="Arial, Helvetica, sans-serif">
    <text x="301" y="100" fill="#202622" font-size="27" font-weight="700">Agentic Data</text>
    <text x="301" y="132" fill="#202622" font-size="27" font-weight="700">Scientists</text>
    <text x="301" y="166" fill="#657069" font-size="16">Analyze · discover · improve</text>
  </g>

  <!-- Models of dynamic worlds. -->
  <g filter="url(#shadow)">
    <rect x="25" y="558" width="280" height="160" rx="22" fill="#ffffff" stroke="#cbd6ce"/>
  </g>
  <g transform="translate(104 575)" fill="none" stroke="#678d7b" stroke-width="2.7" stroke-linecap="round" stroke-linejoin="round">
    <rect x="0" y="8" width="35" height="52" rx="6" fill="#edf3ef"/>
    <path d="M7 47 L17 23 L28 37"/>
    <circle cx="7" cy="47" r="3" fill="#678d7b"/><circle cx="17" cy="23" r="3" fill="#678d7b"/><circle cx="28" cy="37" r="3" fill="#678d7b"/>
    <circle cx="61" cy="34" r="19" fill="#f9fbf8"/>
    <path d="M48 37 C51 23 67 19 74 31 C80 43 67 52 54 47 Z"/>
    <path d="M47 28 C57 32 66 43 72 49 M45 40 C56 38 69 32 77 26" stroke-width="1.8"/>
    <rect x="86" y="8" width="35" height="52" rx="6" fill="#f9fbf8" stroke-dasharray="5 4"/>
    <path d="M93 44 L104 19 L115 34"/>
    <path d="M36 35 H42 M80 35 H84" marker-end="url(#mini-arrow)"/>
  </g>
  <g font-family="Arial, Helvetica, sans-serif" text-anchor="middle">
    <text x="165" y="662" fill="#202622" font-size="21" font-weight="700">Models of Dynamic</text>
    <text x="165" y="686" fill="#202622" font-size="21" font-weight="700">Worlds</text>
    <text x="165" y="708" fill="#657069" font-size="13.5">Represent · forecast · adapt</text>
  </g>

  <!-- Grounded physical agents. -->
  <g filter="url(#shadow)">
    <rect x="335" y="558" width="280" height="160" rx="22" fill="#ffffff" stroke="#cbd6ce"/>
  </g>
  <g transform="translate(408 572)" fill="none" stroke="#678d7b" stroke-width="2.8" stroke-linecap="round" stroke-linejoin="round">
    <rect x="0" y="20" width="38" height="38" rx="9" fill="#f9fbf8"/>
    <circle cx="19" cy="39" r="7" fill="#edf3ef"/>
    <circle cx="19" cy="39" r="2.8" fill="#678d7b"/>
    <path d="M19 11 V20 M19 58 V67 M-8 39 H0 M38 39 H47"/>
    <path d="M44 18 C68 2 101 3 120 20" marker-end="url(#mini-arrow)"/>
    <path d="M119 60 C96 75 67 74 45 57" marker-end="url(#mini-arrow)"/>
    <path d="M96 60 L96 52 L79 39 L95 24"/>
    <circle cx="96" cy="52" r="4" fill="#fff"/><circle cx="79" cy="39" r="4" fill="#fff"/><circle cx="95" cy="24" r="4" fill="#fff"/>
    <path d="M95 24 L106 18 M95 24 L107 31"/>
    <rect x="111" y="21" width="14" height="14" rx="2" fill="#edf3ef"/>
    <path d="M103 60 H133" stroke="#91aa9c" stroke-width="2"/>
  </g>
  <g font-family="Arial, Helvetica, sans-serif" text-anchor="middle">
    <text x="475" y="662" fill="#202622" font-size="21" font-weight="700">Grounded Physical</text>
    <text x="475" y="686" fill="#202622" font-size="21" font-weight="700">Agents</text>
    <text x="475" y="708" fill="#657069" font-size="13.5">Perceive · reason · act</text>
  </g>
</svg>
