<svg xmlns="http://www.w3.org/2000/svg" viewBox="0 0 640 1160" role="img" aria-labelledby="title desc">
  <title id="title">Research framework</title>
  <desc id="desc">A vertical research loop connects models of dynamic worlds, grounded physical agents, and agentic data scientists.</desc>
  <defs>
    <marker id="arrow" viewBox="0 0 10 10" refX="8" refY="5" markerWidth="7" markerHeight="7" orient="auto-start-reverse">
      <path d="M 0 0 L 10 5 L 0 10 z" fill="#527866"/>
    </marker>
  </defs>
  <rect x="1" y="1" width="638" height="1158" rx="28" fill="#f5f6f1" stroke="#dfe2da"/>

  <rect x="70" y="45" width="500" height="142" rx="28" fill="#e8efea" stroke="#678d7b" stroke-width="2"/>
  <g font-family="Arial, Helvetica, sans-serif" text-anchor="middle">
    <text x="320" y="93" fill="#1d2822" font-size="29" font-weight="700">Agentic intelligence</text>
    <text x="320" y="128" fill="#1d2822" font-size="23" font-weight="600">across digital &amp; physical worlds</text>
    <text x="320" y="160" fill="#66736b" font-size="16" font-weight="600">UNDERSTAND · DECIDE · LEARN</text>
  </g>

  <g fill="#ffffff" stroke="#cbd6ce">
    <rect x="60" y="245" width="520" height="190" rx="24"/>
    <rect x="60" y="535" width="520" height="190" rx="24"/>
    <rect x="60" y="825" width="520" height="190" rx="24"/>
  </g>

  <g font-family="Arial, Helvetica, sans-serif" fill="#202622" text-anchor="middle">
    <text x="320" y="318" font-size="31" font-weight="700">Models of Dynamic Worlds</text>
    <text x="320" y="359" font-size="20" fill="#657069">Represent · forecast · adapt</text>

    <text x="320" y="608" font-size="31" font-weight="700">Grounded Physical Agents</text>
    <text x="320" y="649" font-size="20" fill="#657069">Reason · coordinate · act</text>

    <text x="320" y="898" font-size="31" font-weight="700">Agentic Data Scientists</text>
    <text x="320" y="939" font-size="20" fill="#657069">Analyze · discover · improve</text>
  </g>

  <g fill="none" stroke="#527866" stroke-width="3" marker-end="url(#arrow)">
    <path d="M 320 435 V 520"/>
    <path d="M 320 725 V 810"/>
    <path d="M 580 920 C 625 920 625 340 580 340"/>
  </g>
  <g fill="#f5f6f1" font-family="Arial, Helvetica, sans-serif" font-size="17" font-weight="600" text-anchor="middle">
    <rect x="194" y="465" width="252" height="32" rx="16"/>
    <text x="320" y="487" fill="#526059">representations &amp; forecasts</text>
    <rect x="193" y="755" width="254" height="32" rx="16"/>
    <text x="320" y="777" fill="#526059">observations &amp; consequences</text>
  </g>
  <text x="610" y="631" transform="rotate(-90 610 631)" fill="#526059" font-family="Arial, Helvetica, sans-serif" font-size="17" font-weight="600" text-anchor="middle">knowledge &amp; reusable workflows</text>
</svg>
